<?xml version="1.0" standalone="no"?>
<!DOCTYPE svg PUBLIC "-//W3C//DTD SVG 20010904//EN"
 "http://www.w3.org/TR/2001/REC-SVG-20010904/DTD/svg10.dtd">
<svg version="1.0" xmlns="http://www.w3.org/2000/svg"
 width="512.000000pt" height="512.000000pt" viewBox="0 0 512.000000 512.000000"
 preserveAspectRatio="xMidYMid meet">

<g transform="translate(0.000000,512.000000) scale(0.100000,-0.100000)"
fill="#000000" stroke="none">
<path d="M1955 5014 c-132 -28 -285 -117 -370 -216 -28 -34 -68 -93 -109 -164
-1 -1 -30 4 -66 12 -214 45 -447 -24 -603 -179 -84 -84 -137 -170 -174 -282
-22 -67 -26 -99 -27 -195 0 -63 5 -131 11 -151 10 -36 10 -36 -26 -49 -54 -19
-135 -66 -194 -115 -220 -179 -300 -523 -183 -788 l24 -55 -50 -48 c-70 -69
-117 -145 -152 -244 -25 -73 -30 -100 -30 -190 0 -164 54 -304 162 -421 48
-53 167 -139 191 -139 22 0 19 -22 -14 -92 -155 -325 -16 -723 307 -882 51
-26 122 -52 158 -60 l64 -13 17 -86 c75 -378 475 -603 822 -462 l62 25 35 -25
c150 -103 356 -130 535 -70 162 54 283 159 360 314 l25 49 0 331 0 331 158 0
157 0 37 -59 37 -59 -21 -27 c-30 -39 -58 -119 -58 -168 0 -83 27 -145 89
-208 89 -88 192 -111 308 -68 193 73 249 323 105 472 -66 69 -156 101 -245 87
l-44 -6 -55 90 c-30 50 -65 97 -79 103 -16 9 -82 13 -206 13 l-183 0 0 180 0
180 490 0 490 0 120 -140 120 -140 0 -138 0 -138 -43 -21 c-133 -64 -198 -197
-163 -334 60 -233 341 -305 500 -128 131 145 85 375 -90 460 l-44 21 0 156 c0
118 -4 164 -15 185 -19 38 -292 355 -315 367 -12 6 -214 10 -534 10 l-516 0 0
145 0 145 524 0 524 0 197 -227 c109 -126 206 -236 217 -245 18 -16 42 -18
184 -18 l164 0 24 -48 c28 -56 99 -124 153 -148 59 -26 166 -24 231 5 110 49
180 170 169 290 -17 197 -223 319 -405 241 -59 -26 -134 -101 -154 -156 l-12
-34 -133 0 -132 0 -198 227 c-109 125 -206 234 -216 242 -15 14 -90 17 -575
21 l-557 5 -3 273 -2 272 547 0 c504 0 550 1 575 18 15 9 118 122 229 250
l201 232 132 0 131 0 18 -43 c37 -91 138 -163 240 -174 87 -9 160 19 228 86
115 116 121 280 13 400 -83 93 -217 122 -332 71 -59 -26 -134 -101 -154 -156
l-12 -34 -166 0 -166 0 -45 -47 c-25 -27 -123 -137 -218 -245 l-171 -198 -525
0 -525 0 0 145 0 145 516 0 c321 0 522 4 534 10 22 12 297 332 316 369 10 19
14 70 14 183 l0 156 45 22 c62 30 131 110 150 173 33 112 10 204 -74 288 -63
62 -125 89 -207 89 -99 0 -206 -68 -256 -162 -33 -61 -33 -194 0 -255 30 -57
86 -111 139 -135 l43 -19 0 -142 0 -142 -117 -137 -117 -138 -493 0 -493 0 0
185 0 185 194 0 c224 0 208 -7 279 111 l46 75 65 -4 c83 -5 150 17 210 69 133
117 133 321 0 438 -114 101 -291 94 -400 -16 -93 -92 -109 -232 -40 -346 l33
-55 -39 -61 -38 -61 -155 0 -155 0 0 316 0 316 -42 81 c-135 260 -441 402
-733 341z m309 -164 c33 -11 79 -32 104 -46 63 -37 152 -131 185 -195 l27 -54
0 -517 0 -517 -57 20 c-165 57 -413 -10 -413 -111 0 -36 39 -80 70 -80 11 0
44 12 73 27 44 23 64 28 132 28 83 0 124 -14 173 -58 l22 -20 0 -365 0 -364
-22 7 c-164 51 -270 45 -385 -21 -68 -39 -68 -106 -1 -143 23 -14 31 -13 84
11 33 14 75 29 95 32 51 9 129 -10 183 -44 l46 -30 0 -938 0 -938 -36 -60
c-44 -74 -74 -106 -143 -151 -84 -56 -158 -75 -271 -71 -77 3 -106 9 -157 32
l-62 28 42 52 c64 77 90 145 95 248 5 99 -21 207 -62 254 -32 38 -81 37 -113
-1 -28 -32 -27 -45 7 -140 26 -70 23 -128 -10 -202 -27 -61 -51 -86 -124 -135
-288 -188 -659 -19 -710 323 l-7 45 58 18 c93 29 227 103 282 156 89 85 118
188 65 229 -49 38 -103 19 -124 -43 -22 -69 -128 -143 -274 -192 -78 -27 -111
-29 -188 -13 -189 39 -358 208 -397 397 -32 153 6 310 105 441 61 79 41 128
-64 160 -405 123 -450 656 -72 857 26 14 56 19 120 19 103 0 140 -17 222 -99
64 -64 94 -71 133 -31 44 43 27 94 -57 174 -93 90 -240 135 -365 111 -115 -21
-113 -21 -135 35 -32 78 -37 243 -10 332 41 134 139 249 265 311 35 18 71 32
78 32 8 0 35 -22 61 -49 27 -27 74 -62 105 -78 49 -23 71 -28 138 -28 149 0
220 51 182 130 -20 42 -54 53 -107 35 -53 -18 -132 -8 -174 21 -45 31 -72 79
-96 175 -47 184 -1 352 135 490 149 151 324 190 552 125 124 -36 167 -58 215
-108 66 -68 83 -120 84 -262 1 -116 3 -126 24 -143 12 -10 35 -18 50 -18 63 0
89 55 90 185 0 182 -87 344 -228 425 -34 19 -62 40 -62 46 0 6 18 36 40 66
129 181 377 260 584 188z m1134 -450 c124 -76 76 -250 -70 -250 -39 0 -54 6
-82 31 -123 107 13 303 152 219z m692 5 c69 -36 95 -109 61 -177 -25 -53 -65
-78 -121 -78 -109 0 -173 117 -114 208 36 55 116 77 174 47z m824 -896 c103
-90 34 -252 -101 -236 -47 5 -85 32 -109 79 -19 36 -18 72 3 115 22 47 66 73
125 73 39 0 54 -6 82 -31z m-23 -1674 c40 -21 69 -71 69 -120 0 -135 -180
-187 -250 -72 -71 115 61 254 181 192z m-1485 -884 c55 -34 79 -113 50 -169
-26 -49 -62 -75 -113 -79 -73 -6 -138 43 -143 107 -5 65 1 83 39 121 34 35 44
39 87 39 30 0 61 -7 80 -19z m708 -12 c57 -49 66 -121 24 -182 -60 -85 -184
-72 -234 25 -19 36 -18 72 3 115 22 47 66 73 125 73 39 0 54 -6 82 -31z"/>
<path d="M1365 3210 c-92 -14 -181 -58 -196 -96 -11 -31 6 -78 36 -94 26 -14
43 -11 125 19 67 25 119 26 190 5 42 -12 67 -29 117 -80 53 -54 69 -64 98 -64
24 0 39 7 54 26 28 36 26 64 -7 110 -93 128 -260 198 -417 174z"/>
<path d="M1629 2191 c-33 -34 -35 -45 -14 -126 36 -135 121 -241 239 -296 74
-35 170 -53 232 -43 74 11 106 74 65 125 -16 20 -31 25 -103 29 -101 7 -163
35 -219 98 -39 45 -69 115 -69 163 0 31 -49 79 -82 79 -11 0 -33 -13 -49 -29z"/>
<path d="M976 2181 c-42 -46 -29 -201 24 -309 55 -109 192 -215 296 -229 33
-4 43 -1 63 21 29 31 32 77 6 105 -9 11 -39 27 -65 36 -64 21 -137 87 -166
150 -18 38 -24 67 -24 126 0 66 -3 78 -23 97 -30 28 -87 29 -111 3z"/>
</g>
</svg>
