<?xml version="1.0" standalone="no"?>
<!DOCTYPE svg PUBLIC "-//W3C//DTD SVG 20010904//EN"
 "http://www.w3.org/TR/2001/REC-SVG-20010904/DTD/svg10.dtd">
<svg version="1.0" xmlns="http://www.w3.org/2000/svg"
 width="1041.000000pt" height="228.000000pt" viewBox="0 0 1041.000000 228.000000"
 preserveAspectRatio="xMidYMid meet">

<g transform="translate(0.000000,228.000000) scale(0.100000,-0.100000)"
fill="#283e7c" stroke="none">
<path d="M3132 2270 c-88 -12 -135 -29 -637 -223 l-440 -170 -625 8 -625 7
-128 -53 c-70 -29 -124 -56 -120 -59 5 -4 184 -47 400 -96 216 -49 389 -92
385 -95 -4 -4 -96 -36 -204 -72 l-197 -65 -88 24 c-164 46 -517 132 -630 154
-125 25 -152 22 -194 -20 -36 -35 -37 -60 -3 -93 73 -74 470 -234 864 -350
l115 -33 315 96 c173 53 316 96 318 94 2 -1 -56 -136 -127 -300 -72 -163 -130
-299 -128 -300 4 -4 400 146 413 157 6 5 109 155 230 333 l219 325 50 17 c134
45 639 229 790 288 309 122 389 163 425 221 45 72 11 145 -84 183 -67 27 -193
36 -294 22z"/>
<path d="M9846 2264 c-145 -32 -253 -110 -308 -222 -59 -119 -49 -294 22 -397
58 -85 108 -117 310 -200 162 -66 230 -101 269 -138 123 -117 81 -325 -81
-398 -45 -20 -68 -24 -153 -23 -109 0 -134 6 -273 66 -105 46 -113 44 -147
-32 -26 -58 -12 -80 77 -124 104 -51 175 -67 318 -73 141 -6 224 8 311 53 159
80 240 250 211 438 -15 94 -47 160 -110 223 -58 58 -128 97 -308 168 -237 95
-276 129 -282 247 -5 89 15 146 70 193 61 52 121 68 236 63 86 -4 106 -8 177
-41 43 -21 84 -36 91 -33 6 2 23 28 37 56 33 66 26 87 -44 122 -115 59 -296
81 -423 52z"/>
<path d="M3933 2260 l-23 -9 0 -749 c0 -568 3 -751 12 -760 16 -16 140 -16
156 0 9 9 12 158 12 610 0 329 4 598 8 598 4 0 22 -28 39 -62 18 -35 195 -308
395 -608 l363 -545 78 -3 c50 -2 84 1 93 9 12 10 14 129 14 760 l0 749 -26 10
c-33 13 -95 13 -128 0 l-26 -9 -2 -603 -3 -602 -34 64 c-56 104 -736 1125
-762 1143 -26 19 -127 23 -166 7z"/>
<path d="M6603 2260 c-13 -5 -23 -16 -23 -24 0 -7 101 -167 225 -355 124 -188
225 -346 225 -352 0 -5 -109 -171 -241 -367 -133 -196 -247 -370 -253 -385 -9
-22 -8 -30 4 -37 22 -14 163 -12 182 3 9 6 107 147 218 312 111 165 204 302
205 303 2 2 93 -131 203 -295 110 -165 207 -307 217 -316 24 -25 192 -21 208
5 9 14 -35 86 -246 403 l-258 386 203 302 c111 166 212 317 225 336 43 63 23
91 -65 91 -93 0 -92 1 -287 -286 -99 -146 -183 -268 -186 -270 -4 -2 -87 118
-185 266 -141 212 -185 271 -208 280 -35 12 -132 12 -163 0z"/>
<path d="M8032 2254 l-22 -15 0 -547 c0 -596 3 -624 57 -724 55 -102 174 -187
315 -226 90 -24 356 -24 448 1 189 51 311 166 355 332 13 50 15 148 15 617 l0
558 -26 10 c-45 18 -122 12 -144 -10 -20 -20 -20 -33 -20 -563 l0 -544 -31
-61 c-52 -106 -153 -172 -294 -194 -190 -29 -374 45 -450 183 l-30 54 -3 555
c-2 550 -2 555 -23 573 -27 22 -116 23 -147 1z"/>
<path d="M5512 2248 c-9 -9 -12 -189 -12 -749 0 -657 2 -739 16 -753 13 -14
66 -16 423 -16 340 0 411 2 420 14 7 9 11 40 9 78 l-3 63 -337 3 -338 2 0 270
0 270 288 0 c337 0 327 -3 327 85 0 88 10 85 -327 85 l-288 0 0 250 0 250 328
0 c242 0 331 3 340 12 12 12 17 104 6 132 -5 14 -52 16 -423 16 -311 0 -420
-3 -429 -12z"/>
<path d="M2517 444 c-4 -4 -7 -16 -7 -26 0 -13 8 -18 31 -18 26 0 30 3 27 23
-3 22 -36 36 -51 21z"/>
<path d="M5397 444 c-4 -4 -7 -16 -7 -26 0 -13 8 -18 31 -18 26 0 30 3 27 23
-3 22 -36 36 -51 21z"/>
<path d="M5480 296 l0 -156 30 0 31 0 -3 153 -3 152 -27 3 -28 3 0 -155z"/>
<path d="M6277 443 c-4 -3 -7 -31 -7 -61 0 -54 -1 -55 -19 -38 -29 27 -89 18
-115 -17 -29 -39 -29 -115 0 -154 25 -34 82 -43 120 -18 21 14 24 14 24 0 0
-9 9 -15 25 -15 l25 0 0 155 0 155 -23 0 c-13 0 -27 -3 -30 -7z m-30 -131 c6
-4 16 -20 22 -34 25 -65 -40 -128 -81 -78 -43 53 6 146 59 112z"/>
<path d="M6947 437 c-8 -22 8 -39 34 -35 35 5 33 42 -2 46 -16 2 -29 -3 -32
-11z"/>
<path d="M8120 442 c-36 -6 -50 -20 -50 -53 0 -22 -5 -29 -20 -29 -15 0 -20
-7 -20 -25 0 -18 5 -25 20 -25 18 0 20 -7 20 -85 0 -84 0 -85 25 -85 25 0 25
1 25 85 l0 85 40 0 40 0 0 -63 c0 -82 17 -107 71 -107 32 0 39 3 39 19 0 13
-8 21 -22 23 -21 3 -23 9 -26 66 -3 57 -1 62 18 62 11 0 24 8 27 17 4 11 16
-20 33 -83 26 -97 27 -99 58 -102 33 -3 38 6 58 106 11 53 19 45 39 -34 18
-72 19 -74 50 -74 l31 0 27 104 c15 57 27 107 27 110 0 3 -11 6 -25 6 -26 0
-31 -12 -53 -120 l-9 -45 -12 45 c-7 25 -17 62 -22 83 -8 32 -14 37 -38 37
-27 0 -29 -3 -46 -81 -20 -88 -26 -87 -45 14 l-12 67 -54 0 c-51 0 -54 1 -54
25 0 21 -5 25 -30 25 -25 0 -30 -4 -30 -25 0 -23 -4 -25 -41 -25 -33 0 -40 3
-37 18 2 9 13 18 26 20 13 2 22 10 22 22 0 21 -15 27 -50 22z"/>
<path d="M4224 426 c-89 -40 -109 -197 -33 -261 55 -45 140 -42 187 8 53 57 9
93 -46 38 -17 -17 -39 -31 -49 -31 -53 0 -91 74 -73 142 12 41 24 54 62 63 22
6 33 1 59 -24 17 -18 41 -31 55 -31 23 0 24 1 11 32 -26 63 -108 94 -173 64z"/>
<path d="M7623 425 c-35 -15 -53 -41 -53 -78 0 -39 30 -66 94 -85 33 -10 64
-25 70 -34 26 -42 -67 -68 -101 -28 -10 11 -30 20 -44 20 -22 0 -26 -4 -22
-19 22 -86 189 -93 223 -10 25 60 -6 99 -96 122 -54 14 -75 37 -55 61 19 22
68 20 88 -4 18 -21 63 -28 63 -9 0 24 -24 52 -55 65 -42 17 -71 17 -112 -1z"/>
<path d="M2300 285 l0 -145 30 0 c30 0 30 1 30 55 l0 55 60 0 c57 0 60 1 60
25 0 24 -3 25 -60 25 l-60 0 0 40 0 40 65 0 c63 0 65 1 65 25 0 25 0 25 -95
25 l-95 0 0 -145z"/>
<path d="M3270 285 l0 -145 95 0 c95 0 95 0 95 25 0 24 -2 25 -65 25 l-65 0 0
35 0 34 63 3 c56 3 62 5 65 26 3 21 0 22 -62 22 l-66 0 0 35 0 35 65 0 c63 0
65 1 65 25 0 25 0 25 -95 25 l-95 0 0 -145z"/>
<path d="M5650 286 l0 -146 30 0 c30 0 30 1 30 55 0 51 2 55 24 55 19 0 31
-12 55 -55 27 -47 35 -55 61 -55 17 0 30 2 30 5 0 3 -12 27 -27 54 l-28 49 25
27 c33 35 34 96 2 127 -19 20 -35 23 -112 26 l-90 4 0 -146z m160 75 c5 -11
10 -24 10 -30 0 -22 -33 -41 -71 -41 l-39 0 0 45 0 45 45 0 c34 0 47 -5 55
-19z"/>
<path d="M9250 335 c0 -93 0 -95 24 -95 21 0 24 5 30 61 3 34 6 77 6 95 0 31
-3 34 -30 34 l-30 0 0 -95z"/>
<path d="M2970 385 c0 -16 -6 -25 -15 -25 -9 0 -15 -9 -15 -25 0 -16 6 -25 15
-25 12 0 15 -14 15 -69 0 -81 13 -101 66 -101 27 0 34 4 34 19 0 10 -9 21 -20
24 -17 4 -20 14 -20 66 0 54 2 61 20 61 15 0 20 7 20 25 0 18 -5 25 -20 25
-15 0 -20 7 -20 25 0 21 -5 25 -30 25 -25 0 -30 -4 -30 -25z"/>
<path d="M4900 385 c0 -16 -6 -25 -15 -25 -9 0 -15 -9 -15 -25 0 -16 6 -25 15
-25 12 0 15 -14 15 -63 0 -82 17 -107 71 -107 32 0 39 3 39 19 0 13 -8 21 -22
23 -21 3 -23 9 -26 65 -3 58 -1 62 20 65 15 2 24 11 26 26 3 18 -1 22 -22 22
-21 0 -26 5 -26 25 0 21 -5 25 -30 25 -25 0 -30 -4 -30 -25z"/>
<path d="M6830 385 c0 -18 -5 -25 -20 -25 -15 0 -20 -7 -20 -25 0 -18 5 -25
20 -25 18 0 20 -7 20 -75 0 -82 9 -95 69 -95 38 0 43 30 9 45 -19 8 -23 19
-26 68 -3 55 -2 57 23 57 20 0 25 5 25 25 0 20 -5 25 -25 25 -20 0 -25 5 -25
25 0 20 -5 25 -25 25 -20 0 -25 -5 -25 -25z"/>
<path d="M2801 361 c-13 -3 -34 -19 -45 -34 -19 -26 -19 -30 -6 -55 11 -19 31
-31 70 -42 57 -17 71 -37 34 -51 -14 -4 -32 -2 -49 7 -27 14 -65 19 -65 8 0
-39 73 -70 129 -54 47 13 61 28 61 65 0 38 -14 52 -61 61 -46 9 -69 22 -69 38
0 20 35 26 66 10 26 -14 64 -19 64 -8 0 21 -26 45 -58 54 -20 5 -39 9 -42 9
-3 -1 -16 -4 -29 -8z"/>
<path d="M3775 362 c-32 -11 -51 -25 -64 -49 -14 -27 -14 -108 0 -135 15 -28
74 -51 113 -42 30 6 76 40 76 56 0 12 -48 10 -55 -2 -10 -16 -62 -12 -79 6
-35 34 -21 44 65 44 l81 0 -7 33 c-11 50 -24 68 -60 83 -37 15 -40 15 -70 6z
m63 -54 c26 -26 13 -38 -38 -38 -54 0 -55 1 -40 31 12 22 59 26 78 7z"/>
<path d="M4484 356 c-45 -20 -64 -52 -64 -108 0 -38 6 -54 28 -80 25 -26 36
-31 75 -31 60 0 93 23 107 73 28 104 -54 186 -146 146z m80 -58 c9 -12 16 -34
16 -48 0 -54 -55 -91 -88 -58 -15 15 -16 82 -2 109 14 26 55 24 74 -3z"/>
<path d="M4760 363 c-8 -3 -23 -12 -32 -21 -16 -14 -18 -13 -18 1 0 11 -8 17
-25 17 l-25 0 0 -110 0 -110 25 0 c24 0 25 2 25 73 0 76 15 107 51 107 30 0
39 -24 39 -102 l0 -78 31 0 31 0 -4 95 c-3 101 -12 119 -58 129 -14 3 -32 2
-40 -1z"/>
<path d="M5233 363 c-13 -2 -32 -16 -43 -30 l-20 -26 0 27 c0 22 -5 26 -27 26
-14 0 -35 -7 -45 -17 -17 -15 -18 -15 -18 0 0 11 -8 17 -25 17 l-25 0 0 -110
0 -110 25 0 c24 0 25 2 25 69 0 92 12 105 90 96 38 -4 60 -3 64 4 9 15 49 14
64 -1 22 -22 13 -38 -22 -38 -51 0 -96 -20 -106 -46 -11 -29 2 -69 25 -78 30
-11 78 -6 97 11 17 15 18 15 18 0 0 -11 8 -17 25 -17 25 0 25 1 25 86 0 98 -7
118 -51 133 -33 11 -37 11 -76 4z m74 -139 c7 -20 -28 -45 -56 -42 -35 4 -36
39 -1 49 33 9 52 7 57 -7z"/>
<path d="M5950 352 c-79 -39 -77 -166 2 -205 43 -21 83 -17 123 14 34 28 32
43 -5 35 -16 -3 -44 -9 -60 -12 -34 -7 -60 9 -60 37 0 17 8 19 75 19 74 0 75
0 75 25 0 41 -27 82 -61 94 -42 14 -48 14 -89 -7z m90 -51 c15 -30 14 -31 -40
-31 -34 0 -50 4 -50 13 0 38 71 52 90 18z"/>
<path d="M6653 359 c-18 -5 -39 -19 -48 -31 -20 -30 -20 -126 0 -155 19 -27
76 -44 116 -36 27 5 69 44 69 64 0 15 -47 10 -60 -6 -31 -37 -90 -1 -90 55 0
59 65 94 92 50 13 -21 58 -28 58 -9 0 24 -24 52 -55 65 -38 16 -38 16 -82 3z"/>
<path d="M7094 356 c-45 -20 -64 -52 -64 -108 0 -38 6 -54 28 -80 25 -26 36
-31 75 -31 60 0 93 23 107 73 28 104 -54 186 -146 146z m80 -58 c9 -12 16 -34
16 -48 0 -54 -55 -91 -88 -58 -15 15 -16 82 -2 109 14 26 55 24 74 -3z"/>
<path d="M7370 363 c-8 -3 -23 -12 -32 -21 -16 -14 -18 -13 -18 1 0 12 -9 17
-30 17 l-30 0 0 -110 0 -110 30 0 30 0 0 74 c0 76 13 106 45 106 32 0 45 -30
45 -106 l0 -74 31 0 31 0 -4 90 c-3 73 -8 94 -24 109 -22 22 -53 32 -74 24z"/>
<path d="M7873 355 c-43 -18 -67 -66 -60 -122 5 -51 26 -78 73 -93 69 -23 144
31 144 103 0 50 -27 97 -64 112 -43 18 -52 18 -93 0z m79 -52 c23 -20 24 -80
1 -105 -36 -40 -83 -10 -83 52 0 62 42 89 82 53z"/>
<path d="M8690 353 c-43 -22 -53 -53 -16 -53 14 0 28 5 31 10 10 16 62 12 69
-6 11 -28 6 -34 -28 -34 -40 0 -87 -16 -98 -33 -14 -22 -8 -64 10 -80 10 -10
34 -17 52 -17 18 0 42 7 52 17 17 15 18 15 18 0 0 -11 8 -17 25 -17 25 0 25 0
25 93 0 77 -3 97 -17 110 -29 25 -83 30 -123 10z m90 -132 c0 -26 -24 -43 -57
-39 -40 4 -39 40 2 49 50 11 55 10 55 -10z"/>
<path d="M9060 352 c-79 -39 -77 -166 2 -205 43 -21 83 -17 123 14 34 28 32
43 -5 35 -16 -3 -44 -9 -60 -12 -34 -7 -60 9 -60 37 0 17 8 19 75 19 74 0 75
0 75 25 0 41 -27 82 -61 94 -42 14 -48 14 -89 -7z m90 -51 c15 -30 14 -31 -40
-31 -34 0 -50 4 -50 13 0 38 71 52 90 18z"/>
<path d="M2510 250 l0 -110 30 0 30 0 0 110 0 110 -30 0 -30 0 0 -110z"/>
<path d="M2600 250 l0 -110 30 0 30 0 0 73 c0 80 9 97 52 97 23 0 28 4 28 25
0 20 -5 25 -27 25 -14 0 -35 -7 -45 -17 -17 -15 -18 -15 -18 0 0 11 -8 17 -25
17 l-25 0 0 -110z"/>
<path d="M3480 353 c0 -5 16 -54 36 -110 36 -102 37 -103 69 -103 33 0 34 1
66 98 17 53 34 103 37 110 3 8 -6 12 -26 12 -24 0 -31 -5 -37 -27 -3 -16 -13
-52 -22 -82 -18 -63 -24 -57 -49 41 -15 64 -18 68 -45 68 -16 0 -29 -3 -29 -7z"/>
<path d="M3920 250 l0 -110 30 0 30 0 0 73 c0 80 9 97 52 97 23 0 28 4 28 25
0 30 -33 35 -62 8 -17 -15 -18 -15 -18 0 0 12 -9 17 -30 17 l-30 0 0 -110z"/>
<path d="M5390 250 l0 -110 30 0 30 0 0 110 0 110 -30 0 -30 0 0 -110z"/>
<path d="M6360 283 c0 -101 6 -121 42 -139 31 -16 62 -12 91 14 15 14 17 13
17 -1 0 -11 8 -17 25 -17 l25 0 0 110 0 110 -25 0 c-24 0 -25 -2 -25 -73 0
-76 -15 -107 -51 -107 -30 0 -39 24 -39 102 l0 78 -30 0 -30 0 0 -77z"/>
<path d="M6950 250 l0 -110 30 0 30 0 0 110 0 110 -30 0 -30 0 0 -110z"/>
<path d="M8860 250 l0 -110 30 0 30 0 0 73 c0 80 9 97 52 97 23 0 28 4 28 25
0 30 -33 35 -62 8 -17 -15 -18 -15 -18 0 0 12 -9 17 -30 17 l-30 0 0 -110z"/>
<path d="M3100 255 c0 -24 2 -25 65 -25 63 0 65 1 65 25 0 24 -2 25 -65 25
-63 0 -65 -1 -65 -25z"/>
<path d="M9252 188 c-26 -26 1 -65 38 -53 16 5 20 14 18 33 -3 30 -35 41 -56
20z"/>
</g>
</svg>
